<?xml version="1.0" encoding="utf-8"?>
<!-- Generator: Adobe Illustrator 15.0.0, SVG Export Plug-In . SVG Version: 6.00 Build 0)  -->
<!DOCTYPE svg PUBLIC "-//W3C//DTD SVG 1.1//EN" "http://www.w3.org/Graphics/SVG/1.1/DTD/svg11.dtd">
<svg version="1.1" id="Capa_1" xmlns="http://www.w3.org/2000/svg" xmlns:xlink="http://www.w3.org/1999/xlink" x="0px" y="0px"
	 width="97px" height="157px" viewBox="0 0 97 157" enable-background="new 0 0 97 157" xml:space="preserve">
<path fill-rule="evenodd" clip-rule="evenodd" d="M73,46c-2.388-15.946-13.757-22.91-21-34c-7.282-3.558-16.611-3.11-24,0
	c-5.723,5.61-4.59,18.077-10,24c-0.036-7.047,4.813-17.846,7-26c9.384-3.135,22.373-4.296,30,1C60.085,23.582,74.883,26.451,73,46z"
	/>
<path fill-rule="evenodd" clip-rule="evenodd" d="M15,24c4.071,1.526-3.759,7.243-1,14c0.87,2.954,1.497-2.32,4-1
	c-1.682,10.682,4.133,13.867,4,23c-5.237-3.763-4.931-13.068-7-20c-5.454,26.612-5.802,65.983,2,89c13.133,4.068,23.438-2.056,37-1
	c-2.218,9.869-16.197-2.553-19,5c7.38,4.061,13.842,0.961,21,2c10.929,1.587,18.84,11.845,31,12c1.648-21.076-12.469-37.086-10-56
	c1.746-13.374-3.104-28.064-4-43c2.593,10.597,9.081,22.24,9,34c-0.035,5.139-2.962,8.99-3,13c-0.102,10.687,5.979,17.776,8,32
	c1.424,10.027,6.633,18.536-1,24c-11.492-2.906-20.151-11.432-31-13c-15.013-2.171-30.315-1.239-41-8
	c-0.723-13.08-6.532-27.186-7-43c-0.224-7.584,2.952-17.429,4-28C12.429,44.586,7.438,30.883,15,24z"/>
<path fill-rule="evenodd" clip-rule="evenodd" d="M34,42c1.702,3.482,1.332,8.774-4,8C28.298,46.518,28.668,41.226,34,42z"/>
<path fill-rule="evenodd" clip-rule="evenodd" d="M22,61c5.271,5.613,2.75,19.687,0,26C18.742,82.731,23.677,67.334,22,61z"/>
<path fill-rule="evenodd" clip-rule="evenodd" d="M21,89c3.708,0.077,1.482,9.642-3,8C17.77,93.103,20.148,91.815,21,89z"/>
<path fill-rule="evenodd" clip-rule="evenodd" fill="#FFFFFF" d="M65,93c2.236,0.431,0.405,4.928,1,7c-1.667,0-3.333,0-5,0
	C61.192,96.526,64.537,96.203,65,93z"/>
<path fill-rule="evenodd" clip-rule="evenodd" d="M51,104c-1.432,3.235-4.229,5.104-8,6C43.859,106.192,46.919,104.586,51,104z"/>
<path fill-rule="evenodd" clip-rule="evenodd" d="M17,105c1,0,2,0,3,0c1.494,7.173,5.954,11.38,6,20
	C21.104,120.229,19.908,111.759,17,105z"/>
<path fill-rule="evenodd" clip-rule="evenodd" d="M44,24c-0.527,4.139-2.861,6.473-7,7c-0.443-0.89-0.878-1.789-2-2
	C34.527,23.445,41.076,17.308,44,24z"/>
<path fill-rule="evenodd" clip-rule="evenodd" d="M58,31c6.571,30.762,10.495,64.172,14,98c-4.043-4.888-4.31-15.303-5-26
	c-1.454-1.546-5.119-0.881-8-1c0.689,4.644,6.068,4.599,5,11c-3.618-1.382-3.679-6.321-7-8c-2.697,2.441,1.423,6.52,0,11
	c-4.27-0.73-2.76-7.24-3-12c-0.99-5.343-11.446-1.221-14-5c1.45-4.135,7.026,0.496,11,0c1.474-3.559-5.288-6.409-4-13
	c4.379,0.621,2.604,7.396,6,9c3.392-3.274,4.296-9.038,7-13c3.457,5.16-3.932,8.041-3,14c2.191,1.691,5.555-1.85,7-4
	c-0.492-11.272-3.61-24.557-5-36c-1.027-8.458,2.371-19.762-7-23c-3.825-0.229-5.001,5.498-3,8c1.507-1.493,1.518-4.482,5-4
	c0.027,0.973,1.224,0.776,2,1c2.094,2.212,0.783,6.66-1,8c-4.026,1.027-4.442-1.557-6-3c-0.081,11.586,2.261,25.594-8,27
	c-3.485-11.182-0.532-28.801-9-35c-8.855,5.498-2.906,17.321-2,27c1.53,16.357,0.182,36.17,1,53c-6.191-14.253-2.215-35.906-4-53
	c-1.183-11.326-7.033-22.847,3-30c13.888,1.112,10.23,19.77,13,32C51.729,56.134,37.107,24.456,58,31z M61,100c1.667,0,3.333,0,5,0
	c-0.595-2.072,1.236-6.569-1-7C64.537,96.203,61.192,96.526,61,100z"/>
</svg>
