<?xml version="1.0" encoding="utf-8"?>
<!-- Generator: Adobe Illustrator 15.0.0, SVG Export Plug-In . SVG Version: 6.00 Build 0)  -->
<!DOCTYPE svg PUBLIC "-//W3C//DTD SVG 1.1//EN" "http://www.w3.org/Graphics/SVG/1.1/DTD/svg11.dtd">
<svg version="1.1" id="Capa_1" xmlns="http://www.w3.org/2000/svg" xmlns:xlink="http://www.w3.org/1999/xlink" x="0px" y="0px"
	 width="207px" height="39px" viewBox="0 0 207 39" enable-background="new 0 0 207 39" xml:space="preserve">
<path fill-rule="evenodd" clip-rule="evenodd" d="M6.5,6c65,0,130,0,195,0c0,8.667,0,17.333,0,26c-65.333,0-130.667,0-196,0
	C5.597,25.681,4.526,13.346,6.5,6z M156.5,22c2.847-0.82,5.076-2.257,6-5c-2.984-0.016-3.4-2.6-6-3
	C156.5,16.667,156.5,19.333,156.5,22z M48.5,23c2.847-0.82,5.077-2.257,6-5c-3.14,0.473-2.642-2.691-5-3
	C47.954,16.454,48.619,20.119,48.5,23z M66.5,22c2.313,1.813,5.344-2.061,6-5c-3.078,0.745-1.922-2.745-5-2
	C68.08,18.247,66.818,19.652,66.5,22z M87.5,23c0.826-2.507,3.504-3.163,5-5c-2.111-0.889-2.955-3.044-6-3
	C87.109,17.391,85.244,22.256,87.5,23z M106.5,23c0.697-2.636,4.553-2.114,5-5c-2.6-0.4-3.016-2.984-6-3
	C106.109,17.391,104.244,22.256,106.5,23z M121.5,23c3.232-0.768,5.232-2.768,6-6c-3.149,0.483-2.264-3.069-6-2
	C121.5,17.667,121.5,20.333,121.5,23z M138.5,23c3.232-0.768,5.232-2.768,6-6c-3.149,0.483-2.264-3.069-6-2
	C138.5,17.667,138.5,20.333,138.5,23z M171.5,23c3.541,0.541,2.459-3.541,6-3c-0.229-3.438-2.976-4.357-6-5
	C171.5,17.667,171.5,20.333,171.5,23z M188.5,22c2.892-0.441,4.559-2.108,5-5c-1.553-0.229-4.666-3.844-6-1
	C190.095,16.845,185.576,20.387,188.5,22z M13.5,24c0.447-2.886,4.303-2.364,5-5c-2.111-0.889-2.956-3.044-6-3
	C13.109,18.391,11.245,23.256,13.5,24z M29.5,23c3.779,0.112,5.377-1.957,6-5c-3.15,0.483-2.264-3.069-6-2
	C29.5,18.333,29.5,20.667,29.5,23z"/>
</svg>
