<?xml version="1.0" encoding="utf-8"?>
<!-- Generator: Adobe Illustrator 15.0.0, SVG Export Plug-In . SVG Version: 6.00 Build 0)  -->
<!DOCTYPE svg PUBLIC "-//W3C//DTD SVG 1.1//EN" "http://www.w3.org/Graphics/SVG/1.1/DTD/svg11.dtd">
<svg version="1.1" id="Capa_1" xmlns="http://www.w3.org/2000/svg" xmlns:xlink="http://www.w3.org/1999/xlink" x="0px" y="0px"
	 width="332.829px" height="67.193px" viewBox="0 0 332.829 67.193" enable-background="new 0 0 332.829 67.193"
	 xml:space="preserve">
<path fill-rule="evenodd" clip-rule="evenodd" d="M200,8.693c2.794,6.775,4.427,10.779,12,14c8.115,22.506-10.096,39.547-28,27
	C173.041,30.437,196.675,23.296,200,8.693z M196,37.693c-2.663-4.758,1.344-7.661,1-13c-7.041,0.045-16.221,12.482-11,22
	c15.546,11.973,28.792-4.619,22-24c-2.091-0.576-2.854-2.479-6-2C199.137,25.496,201.858,35.884,196,37.693z"/>
<path fill-rule="evenodd" clip-rule="evenodd" d="M109,34.693c-9.312-1.021-10.599-10.067-18-13c-3.492,9.393,2.256,22.509-2,28
	c-5.686-5.314-1.012-20.988-4-29c-8.136,1.64-11.871,12.649-19,12c4.532-9.135,14.395-12.938,20-21
	C94.903,18.124,102.772,25.587,109,34.693z"/>
<path fill-rule="evenodd" clip-rule="evenodd" d="M167,42.693c-18.167,2.941-31.639-0.025-49-1c3.077-9.982,19.449-15.174,25-26
	C152.522,23.17,158.365,34.328,167,42.693z M144,34.693c-4.923,0.59-1.371-7.296-4-9c-3.17,4.83-10.488,5.513-11,13
	c9.827,0.552,21.447,4.03,29-1c-4.794-3.539-5.025-11.642-12-13C144.874,27.567,145.797,32.491,144,34.693z"/>
<path fill-rule="evenodd" clip-rule="evenodd" d="M255,16.693c9.125,3.875,12.39,13.61,13,26c10.518-4.482,11.161-18.838,22-23
	c2.286,9.047,4.902,17.765,5,29c-4.871-4.129-5.278-12.722-6-21c-8.924,6.076-12.999,17.001-23,22c-1.16-9.506-4.502-16.832-7-25
	c-10.123,5.877-10.962,21.038-20,28C235.537,39.402,251.462,29.514,255,16.693z"/>
<path fill-rule="evenodd" clip-rule="evenodd" d="M36,18.693c1.163-0.163,1.779,0.221,2,1c-2.677,8.99-8.8,14.534-16,19
	c6.626,6.35,20.116,5.727,30,4c-2.088-8.578-10.306-11.027-12-20c10.919,3.081,12.1,15.9,20,22c-13.087,4.27-32.109,3.031-44-2
	C18.636,34.584,32.036,28.786,36,18.693z"/>
<path fill-rule="evenodd" clip-rule="evenodd" fill="#FFFFFF" d="M202,20.693c3.146-0.479,3.909,1.424,6,2
	c6.792,19.381-6.454,35.973-22,24c-5.221-9.518,3.959-21.955,11-22c0.344,5.339-3.663,8.242-1,13
	C201.858,35.884,199.137,25.496,202,20.693z"/>
<path fill-rule="evenodd" clip-rule="evenodd" fill="#FFFFFF" d="M146,24.693c6.975,1.358,7.206,9.461,12,13
	c-7.553,5.03-19.173,1.552-29,1c0.512-7.487,7.83-8.17,11-13c2.629,1.704-0.923,9.59,4,9C145.797,32.491,144.874,27.567,146,24.693z
	"/>
</svg>
