<?xml version="1.0" encoding="utf-8"?>
<!-- Generator: Adobe Illustrator 15.0.0, SVG Export Plug-In . SVG Version: 6.00 Build 0)  -->
<!DOCTYPE svg PUBLIC "-//W3C//DTD SVG 1.1//EN" "http://www.w3.org/Graphics/SVG/1.1/DTD/svg11.dtd">
<svg version="1.1" id="Capa_1" xmlns="http://www.w3.org/2000/svg" xmlns:xlink="http://www.w3.org/1999/xlink" x="0px" y="0px"
	 width="142.826px" height="72.008px" viewBox="0 0 142.826 72.008" enable-background="new 0 0 142.826 72.008"
	 xml:space="preserve">
<path fill-rule="evenodd" clip-rule="evenodd" d="M138,12.185c-3.256,12.077-10.004,20.663-14,32c-4.962,0.439-14.9-4.402-15,3
	c2.695,2.305,9.645,0.355,14,1c0.688,4.021-0.958,5.709-1,9c-12.091,0.09-21.792-2.208-34-2c2.766-10.9,7.283-20.051,12-29
	c4.611,2.232,12.561,0.171,17-1c-1.612-4.388-11.462-0.538-15-3c0.08-3.92,1.763-6.237,3-9
	C116.343,13.195,128.003,13.522,138,12.185z M105,19.185c3.035,2.965,12.965-0.965,16,2c-0.877,3.457-2.103,6.564-5,8
	c-5,0-10,0-15,0c-3.775,7.225-6.839,15.161-10,23c8.918,0.028,23.015,4.601,30,0c-3.514-2.486-9.959-2.041-16-2
	c1.463-2.871,1.354-7.312,4-9c4.667,0,9.333,0,14,0c2.914-9.419,8.55-16.116,11-26C124.096,16.282,109.158,12.343,105,19.185z"/>
<path fill-rule="evenodd" clip-rule="evenodd" d="M96,13.185c-3.744,11.256-9.654,20.346-14,31c-6.282,1.075-12.771-3.653-15,2
	c1.439,4.561,12.01-0.01,15,3c-0.246,3.087-1.014,5.652-2,8c-10.464-1.535-22.938-1.062-34-2c2.79-10.211,8.083-17.918,11-28
	c4.488-2.846,16.136,1.469,19-3c-3.715-2.285-9.946-2.054-16-2C59.526,6.711,83.253,15.438,96,13.185z M64,16.185c0,1,0,2,0,3
	c2.707,2.96,12.294-0.96,15,2c-0.772,2.561-0.998,5.669-3,7c-6.541-0.541-11.384,0.616-17,1c-3.015,7.651-6.336,14.997-9,23
	c8.021-0.08,24.139,5.685,29-1c-5.185-0.482-10.898-0.435-15-2c0.88-2.786,1.248-6.085,3-8c4.667,0,9.333,0,14,0
	c2.881-9.453,8.943-15.723,11-26C82.93,15.782,71.427,13.945,64,16.185z"/>
<path fill-rule="evenodd" clip-rule="evenodd" d="M54,14.185c-3.458,11.542-9.25,20.75-14,31c-2.42,2.138-14.312-3.346-15,3
	c3.523,2.144,9.238,2.096,15,2c0.061,3.727-1.008,6.325-2,9c-10.9-1.433-22.694-1.973-34-3c3.268-9.732,7.948-18.053,11-28
	c6.297-1.875,16.092,0.89,19-2c-2.136-4.198-11.788-0.878-16-3C17.872,8.057,41.036,16.221,54,14.185z M22,20.185
	c3.784,2.216,11.355,0.645,15,3c0.779,9.779-11.476,6.524-20,7c-2.688,8.312-7.281,14.719-9,24c10.076-0.627,20.948,2.896,29,1
	c-0.265-6.401-12.96-0.373-15-5c1.614-2.386,0.753-7.246,4-8c4.9-0.233,7.571,1.762,13,1c2.253-10.414,9.36-15.973,11-27
	C41.266,20.306,25.833,12.178,22,20.185z"/>
</svg>
