<?xml version="1.0" encoding="utf-8"?>
<!-- Generator: Adobe Illustrator 15.0.0, SVG Export Plug-In . SVG Version: 6.00 Build 0)  -->
<!DOCTYPE svg PUBLIC "-//W3C//DTD SVG 1.1//EN" "http://www.w3.org/Graphics/SVG/1.1/DTD/svg11.dtd">
<svg version="1.1" id="Capa_1" xmlns="http://www.w3.org/2000/svg" xmlns:xlink="http://www.w3.org/1999/xlink" x="0px" y="0px"
	 width="332.829px" height="67.193px" viewBox="0 0 332.829 67.193" enable-background="new 0 0 332.829 67.193"
	 xml:space="preserve">
<path d="M200,8.693c2.793,6.774,4.426,10.779,12,14c8.115,22.506-10.097,39.547-28,27C173.042,30.437,196.674,23.296,200,8.693z
	 M196,37.693c-2.664-4.758,1.344-7.661,1-13c-7.041,0.045-16.222,12.481-11,22c15.545,11.973,28.791-4.619,22-24
	c-2.092-0.576-2.854-2.479-6-2C199.137,25.496,201.858,35.884,196,37.693z"/>
<path d="M109,34.693c-9.312-1.021-10.599-10.067-18-13c-3.492,9.393,2.256,22.509-2,28c-5.686-5.314-1.012-20.988-4-29
	c-8.136,1.64-11.871,12.648-19,12c4.532-9.135,14.395-12.938,20-21C94.903,18.124,102.772,25.587,109,34.693z"/>
<path d="M167,42.693c-18.167,2.94-31.64-0.025-49-1c3.077-9.982,19.449-15.174,25-26C152.522,23.17,158.365,34.328,167,42.693z
	 M144,34.693c-4.923,0.59-1.371-7.296-4-9c-3.17,4.83-10.488,5.513-11,13c9.827,0.552,21.447,4.03,29-1
	c-4.794-3.539-5.025-11.643-12-13C144.874,27.567,145.797,32.491,144,34.693z"/>
<path d="M255,16.693c9.125,3.875,12.39,13.609,13,26c10.518-4.482,11.16-18.838,22-23c2.285,9.047,4.901,17.765,5,29
	c-4.871-4.129-5.278-12.723-6-21c-8.924,6.076-13,17.001-23,22c-1.16-9.506-4.502-16.832-7-25c-10.123,5.877-10.963,21.038-20,28
	C235.538,39.402,251.461,29.514,255,16.693z"/>
<path d="M36,18.693c1.163-0.163,1.779,0.221,2,1c-2.677,8.99-8.8,14.534-16,19c6.626,6.35,20.116,5.727,30,4
	c-2.088-8.578-10.306-11.027-12-20c10.919,3.081,12.1,15.899,20,22c-13.087,4.27-32.109,3.031-44-2
	C18.636,34.584,32.036,28.786,36,18.693z"/>
</svg>
