<?xml version="1.0" encoding="utf-8"?>
<!-- Generator: Adobe Illustrator 15.0.0, SVG Export Plug-In . SVG Version: 6.00 Build 0)  -->
<!DOCTYPE svg PUBLIC "-//W3C//DTD SVG 1.1//EN" "http://www.w3.org/Graphics/SVG/1.1/DTD/svg11.dtd">
<svg version="1.1" id="Capa_1" xmlns="http://www.w3.org/2000/svg" xmlns:xlink="http://www.w3.org/1999/xlink" x="0px" y="0px"
	 width="111.687px" height="36.004px" viewBox="0 0 111.687 36.004" enable-background="new 0 0 111.687 36.004"
	 xml:space="preserve">
<path fill-rule="evenodd" clip-rule="evenodd" d="M106,7.004c1.027,3.36-3.109,1.557-5,2c-1.341,2.059,4.788,5.174,6,8
	c-0.778,4.555-5.4,5.266-7,9c0.017,2.983,7.411-1.411,6,3c-36.693-1.19-69.606,3.142-103-2c9.97,1.637,10.408-6.259,16-9
	c-3.126-5.54-9.663-7.67-15-11C37.038,7.156,73.582,6.58,106,7.004z M24,27.004c8.062,0.396,10.856-4.478,14-9
	c-3.236-3.116-7.038-10.937-13-8C34.279,16.007,29.747,20.194,24,27.004z M45,27.004c7.444,0.11,9.668-4.998,13-9
	c-4.538-3.128-6.092-9.241-14-9C50.635,16.738,53.013,19.27,45,27.004z M65,27.004c6.537-0.13,7.403-5.93,12-8
	c-3.021-4.645-5.227-10.106-13-10C70.635,16.738,73.013,19.27,65,27.004z M90,18.004c-1.599,3.734-6.221,4.445-7,9
	c4.662-2.338,9.12-4.88,11-10c-3.102-2.256-6.848-9.119-11-7C85.631,12.373,89.028,13.976,90,18.004z"/>
</svg>
