<?xml version="1.0" encoding="utf-8"?>
<!-- Generator: Adobe Illustrator 15.0.0, SVG Export Plug-In . SVG Version: 6.00 Build 0)  -->
<!DOCTYPE svg PUBLIC "-//W3C//DTD SVG 1.1//EN" "http://www.w3.org/Graphics/SVG/1.1/DTD/svg11.dtd">
<svg version="1.1" id="Capa_1" xmlns="http://www.w3.org/2000/svg" xmlns:xlink="http://www.w3.org/1999/xlink" x="0px" y="0px"
	 width="85px" height="85px" viewBox="0 0 85 85" enable-background="new 0 0 85 85" xml:space="preserve">
<path fill-rule="evenodd" clip-rule="evenodd" d="M54.993,4c4.268,0.399,2.165,7.167,7.999,6c-0.794,4.75-3.479,1.393-7.999,2
	C54.296,8.219,53.688,7.143,54.993,4z"/>
<path fill-rule="evenodd" clip-rule="evenodd" d="M49.994,5.999c0,2,0,4,0,6c-1.667,0-3.333,0-5,0
	C45.194,8.532,45.827,5.499,49.994,5.999z"/>
<path fill-rule="evenodd" clip-rule="evenodd" d="M41.995,8.999c-2.247,5.086-9.38,5.285-11.999,9.999
	C30.498,12.167,34.992,9.328,41.995,8.999z"/>
<path fill-rule="evenodd" clip-rule="evenodd" d="M63.992,13.998c3.078-0.745,1.922,2.745,4.999,2c-1.569,2.43-4.254,3.745-7.999,4
	C61.881,17.886,64.036,17.042,63.992,13.998z"/>
<path fill-rule="evenodd" clip-rule="evenodd" d="M22.997,17.998c1.084-2.29,6.285-0.381,5,2.999
	C24.271,22.056,24.769,18.893,22.997,17.998z"/>
<path fill-rule="evenodd" clip-rule="evenodd" d="M66.991,18.998c2.134-0.467,1.905,1.428,2,3c0.577,2.422,3.776,2.224,5.999,3
	c-0.988,4.093-1.068,5.22,2,6.999c-1.844,3.7-1.273,3.598-1,8.999C72.584,34.213,66.47,26.583,66.991,18.998z"/>
<path fill-rule="evenodd" clip-rule="evenodd" d="M15.998,19.998c1,0,2,0,3,0c0.418,3.417-0.302,5.697-4,5
	C14.679,22.678,15.159,21.158,15.998,19.998z"/>
<path fill-rule="evenodd" clip-rule="evenodd" d="M57.993,25.997C63.35,47.686,40.341,68.11,25.997,49.994
	C22.561,27.638,41.162,13.105,57.993,25.997z M42.994,47.994c4.806-3.527,5.861-10.804,8-16.998
	C35.504,19.768,23.293,48.551,42.994,47.994z"/>
<path fill-rule="evenodd" clip-rule="evenodd" d="M6.999,27.997c3.279,3.524,4.545,1.303,7.999,2c-0.237,3.762-4.1,3.899-6.999,5
	C7.217,32.853,5.571,29.409,6.999,27.997z"/>
<path fill-rule="evenodd" clip-rule="evenodd" d="M15.998,35.996c-0.127,1.793,1.224,2.109,1,4c-2.286,2.167-6.238,0.363-6-3
	C12.159,36.156,13.679,35.677,15.998,35.996z"/>
<path fill-rule="evenodd" clip-rule="evenodd" d="M67.991,39.995c5.106-1.354,8.939,8.513,3,8.999
	C72.206,43.922,65.562,43.153,67.991,39.995z"/>
<path fill-rule="evenodd" clip-rule="evenodd" d="M17.998,45.994c-1.434,1.526-5.212,0.974-4.999-2
	C15.434,43.35,18.142,41.976,17.998,45.994z"/>
<path fill-rule="evenodd" clip-rule="evenodd" d="M63.992,43.994c3.473-0.349,4.185,4.695,2.999,6
	C64.9,49.086,63.943,47.043,63.992,43.994z"/>
<path fill-rule="evenodd" clip-rule="evenodd" d="M19.998,48.994c1.055,6.505-6.658,3.309-9.999,2.999
	C12.03,49.692,15.981,49.311,19.998,48.994z"/>
<path fill-rule="evenodd" clip-rule="evenodd" d="M61.992,52.993c3.458-0.791,4.222,1.111,5.999,2c-0.528,0.804-1.043,1.623-1,3
	C64.58,57.071,62.914,55.404,61.992,52.993z"/>
<path fill-rule="evenodd" clip-rule="evenodd" d="M56.993,55.993c0.89,0.776,2.258,1.075,3.999,1c-0.577,2.672,2.958,6.247,0,7.999
	C56.546,63.537,59.744,59.806,56.993,55.993z"/>
<path fill-rule="evenodd" clip-rule="evenodd" d="M19.998,59.992c3.716,1.95,4.781,6.551,6.999,9.999
	C23.573,71.331,19.538,65.755,19.998,59.992z"/>
<path fill-rule="evenodd" clip-rule="evenodd" d="M53.993,64.992c-1.333,0-2.666,0-3.999,0
	C49.206,61.142,54.781,61.142,53.993,64.992z"/>
<path fill-rule="evenodd" clip-rule="evenodd" d="M27.997,66.991c3.612-4.188,3.749,3.518,5,5
	C29.384,76.18,29.247,68.474,27.997,66.991z"/>
<path fill-rule="evenodd" clip-rule="evenodd" d="M40.995,65.992c-0.207,2.873,0.253,5.079,1.999,5.999
	c-1.793,2.455-6.872-2.35-6.999,2.999c-2.236-0.431-0.405-4.928-1-6.999C37.923,68.252,38.068,65.73,40.995,65.992z"/>
<path fill-rule="evenodd" clip-rule="evenodd" d="M45.994,67.991c2.092,0.909,3.049,2.951,3,5.999
	C44.508,75.354,44.14,69.965,45.994,67.991z"/>
</svg>
