<?xml version="1.0" encoding="utf-8"?>
<!-- Generator: Adobe Illustrator 15.0.0, SVG Export Plug-In . SVG Version: 6.00 Build 0)  -->
<!DOCTYPE svg PUBLIC "-//W3C//DTD SVG 1.1//EN" "http://www.w3.org/Graphics/SVG/1.1/DTD/svg11.dtd">
<svg version="1.1" id="Capa_1" xmlns="http://www.w3.org/2000/svg" xmlns:xlink="http://www.w3.org/1999/xlink" x="0px" y="0px"
	 width="42px" height="44px" viewBox="0 0 42 44" enable-background="new 0 0 42 44" xml:space="preserve">
<path fill-rule="evenodd" clip-rule="evenodd" d="M21.997,4c3.28,0.719,1.106,6.893,5,6.999c3.383,0.384,1.573-4.426,5.999-3
	c-1.063,3.494-4.748,5.47-2,9.999c0.021,2.979,4.717,1.282,5.999,2.999c-5.546,2.48-10.113,4.673-5.999,11.999
	c-3.752,0.753-2.18-3.819-4.999-4c-3.124-0.457-3.196,2.137-3,5c-2.371-2.295-4.862-4.47-7.999-6c-2.71,0.623-2.488,4.178-5.999,4
	c-1.011-4.677,4.01-3.322,3-7.999c-0.707-4.003-4.692-0.058-5.999-2c0.02-2.979,4.717-1.282,5.999-3c1.756-4.77-0.58-4.438-1-8.999
	C15.247,13.31,20.6,9.162,21.997,4z M14.998,17.998c-1.112,6.297,4.122,2.457,2,8.998c4.025-0.393,4.739-5.778,6.999,0
	c0.677-2.322,3.323-2.676,4-4.999c-1.571-0.095-3.468,0.134-3-2c1.571-0.095,3.467,0.134,3-2c-3.177-0.157-2.523-4.143-4-6
	c0.121,3.948-5.705,3.144-3,0C13.526,10.717,20.845,18.711,14.998,17.998z"/>
</svg>
