<?xml version="1.0" encoding="utf-8"?>
<!-- Generator: Adobe Illustrator 15.0.0, SVG Export Plug-In . SVG Version: 6.00 Build 0)  -->
<!DOCTYPE svg PUBLIC "-//W3C//DTD SVG 1.1//EN" "http://www.w3.org/Graphics/SVG/1.1/DTD/svg11.dtd">
<svg version="1.1" id="Capa_1" xmlns="http://www.w3.org/2000/svg" xmlns:xlink="http://www.w3.org/1999/xlink" x="0px" y="0px"
	 width="61px" height="64px" viewBox="0 0 61 64" enable-background="new 0 0 61 64" xml:space="preserve">
<path fill-rule="evenodd" clip-rule="evenodd" d="M42.995,6c4.609,3.2-5.79,6.217-6,10.999c0.19,0.81,1.003,0.997,1,2
	c5.653-0.013,5.737-5.595,9.999-7c3.289,3.355-3.426,5.19-4,7.999c1.719,2.612,5.178-1.41,8.999,0c-0.442,3.89-5.679,2.986-8.999,4
	c-0.318,2.319,0.161,3.839,1,5c3.868,0.535,4.882-1.785,8.999-1c-0.636,5.031-7.813,3.519-11.998,5
	c0.333,4.999,6.954,3.711,10.998,4.999c-1.048,6.502-8.824,0.579-12.998,1c-4.007,4.626,0.825,14.012-4.999,17.998
	c-2.725-4.757,1.434-11.206,0-17.998c-5.113,4.553-12.287,7.044-13.999,14.998c-7.923-3.077,3.148-8.239,4-11.998
	c-4.426-2.833-9.483,6.844-12.999,4.999c2.516-4.816,8.369-6.296,10.999-10.998c-3.339-2.993-14.028,1.363-15.998-3
	c0.122-4.211,7.673-0.993,10.999-2c-0.021-5.281-8.783-6.131-6-10.999c4.861,0.471,4.111,6.554,10.999,5
	c-0.926-5.406-4.668-7.997-4.999-13.998c5.839-0.507,3.634,7.031,7.999,7.999c2.705-1.962-0.61-9.942,2-11.999
	c4.929,0.521,1.732,8.234,3,9.999C37.027,15.363,37.989,8.66,42.995,6z M24.997,24.997c0.483,10.015,5.61,9.845,12.998,8.999
	c1.574-2.426,3.729-4.27,3-8.999C36.65,21.137,28.615,19.51,24.997,24.997z"/>
<path fill-rule="evenodd" clip-rule="evenodd" d="M34.996,24.997c2.09-0.423,2.647,0.686,3.999,1
	c-0.564,2.435-0.855,5.143-3.999,4.999C33.629,29.718,33.629,26.275,34.996,24.997z"/>
</svg>
