<?xml version="1.0" encoding="utf-8"?>
<!-- Generator: Adobe Illustrator 15.0.0, SVG Export Plug-In . SVG Version: 6.00 Build 0)  -->
<!DOCTYPE svg PUBLIC "-//W3C//DTD SVG 1.1//EN" "http://www.w3.org/Graphics/SVG/1.1/DTD/svg11.dtd">
<svg version="1.1" id="Capa_1" xmlns="http://www.w3.org/2000/svg" xmlns:xlink="http://www.w3.org/1999/xlink" x="0px" y="0px"
	 width="62px" height="66px" viewBox="0 0 62 66" enable-background="new 0 0 62 66" xml:space="preserve">
<path fill-rule="evenodd" clip-rule="evenodd" d="M25.997,9.999c4.751,2.914,3.726,11.606,4,18.998
	c3.555,6.989,17.84,3.191,25.997,3c-5.466,6.199-22.92,0.411-25.997,8.999c1.216,4.45,1.087,10.245,1,15.998
	c-4.033-5.966-1.514-18.484-8.999-20.997C26.989,30.5,28.361,20.041,25.997,9.999z M24.997,33.996
	c-0.396,3.745,4.548,5.156,6.999,2.999c0-1.333,0-2.666,0-3.999C29.02,31.671,26.923,31.971,24.997,33.996z"/>
<path fill-rule="evenodd" clip-rule="evenodd" d="M19.998,35.996C17.646,39.254,6.795,38.412,3,36.995
	C5.316,34.41,14.532,34.629,19.998,35.996z"/>
</svg>
