<?xml version="1.0" encoding="utf-8"?>
<!-- Generator: Adobe Illustrator 15.0.0, SVG Export Plug-In . SVG Version: 6.00 Build 0)  -->
<!DOCTYPE svg PUBLIC "-//W3C//DTD SVG 1.1//EN" "http://www.w3.org/Graphics/SVG/1.1/DTD/svg11.dtd">
<svg version="1.1" id="Capa_1" xmlns="http://www.w3.org/2000/svg" xmlns:xlink="http://www.w3.org/1999/xlink" x="0px" y="0px"
	 width="71px" height="66px" viewBox="0 0 71 66" enable-background="new 0 0 71 66" xml:space="preserve">
<path fill-rule="evenodd" clip-rule="evenodd" d="M27.997,36.995c-2.131-5.868-9.596-6.402-12.999-10.999
	C11.201,13.712,22.954,2.836,33.996,8.999c1.138,8.803-6.031,9.3-8.999,13.998c0.729,2.271,3.009,2.99,5,4
	c6.905-4.093,9.194-12.803,15.998-16.998c4.375,4.625,15.45,2.547,18.998,7.999c1.058,6.724-2.271,9.062-5.999,10.999
	c-5.775-0.225-7.239-4.759-12.999-4.999c-1.479,0.52-2.52,1.479-3.999,2c-1.361,6.74,5.191,11.766,4.999,18.998
	C46.758,53.91,39.22,62.58,28.997,56.993c-2.44-10.587,11.589-9.54,7.999-17.998c-2.487-0.154-3.095,1.57-4.999,2
	c0.884,1.761,4.437,1.651,2,3.999c-2.598,0.599-3.598-0.401-3-3c-5.167,4.784-15.113,9.157-22.997,8
	c-5.611-6.762-2.373-14.941,4-15.998C17.978,33.004,23.416,42.632,27.997,36.995z M16.998,22.997c0.516,2.352,26.26,18.308,5,17.998
	c-3.314-0.049-2.9-2.664-9.999-5c-3.834,0.869-5.499,7.987-3,11.999c14.3,0.635,18.262-9.068,28.996-11.999
	c7.807,11.241-14.168,15.558-3,20.998c3.037-1.783-3.696-3.917,0-6c3.461-0.7,3.586,3.506,2,5c13.516-5.159,4.483-19.612,2-29.997
	c5.378-11.194,17.134,4.875,23.997-2c1.268-10.267-11.324-6.673-16.998-9.999c-9.249,0.711-5.581,14.97-15.998,14.998
	c-2.354,0.007-6.021,0.975-7-4.999c-1.274-7.785,10.383-4.076,7.999-14.998C20.275,8.927,15.244,15.002,16.998,22.997z"/>
<path fill-rule="evenodd" clip-rule="evenodd" d="M25.997,10.999c1.615-0.282,1.721,0.945,3,1c0.301,2.634-1.385,3.281-4,3
	C24.574,12.908,25.682,12.351,25.997,10.999z"/>
<path fill-rule="evenodd" clip-rule="evenodd" d="M59.992,18.998c-0.122,2.544-1.455,3.877-3.999,4c0.127-1.793-1.224-2.109-1-4
	C56.307,17.714,58.679,17.714,59.992,18.998z"/>
<path fill-rule="evenodd" clip-rule="evenodd" d="M44.994,26.997c1.615-0.282,1.722,0.945,3,1c0.302,2.635-1.385,3.282-4,3
	C43.867,29.203,45.219,28.887,44.994,26.997z"/>
<path fill-rule="evenodd" clip-rule="evenodd" d="M36.995,29.996c0.698,3.697-1.582,4.417-4.999,4
	C32.123,31.123,33.247,29.248,36.995,29.996z"/>
<path fill-rule="evenodd" clip-rule="evenodd" d="M9.999,39.995c2.996-0.072,5.073,2.941,3,4.999
	C9.875,45.452,9.802,42.858,9.999,39.995z"/>
</svg>
